<svg width="324" height="62" xmlns="http://www.w3.org/2000/svg">
 <!-- Generator: Sketch 48.2 (47327) - http://www.bohemiancoding.com/sketch -->
 <title>DmMsyewtkhAzjNkeGnYe</title>
 <desc>Created with Sketch.</desc>

 <g>
  <title>background</title>
  <rect fill="none" id="canvas_background" height="402" width="582" y="-1" x="-1"/>
 </g>
 <g>
  <title>Layer 1</title>
  <g fill-rule="evenodd" fill="none" id="Page-1">
   <path id="Ant-Design-Copy" d="m7.11139,49.08575l-7.11139,0l16.99959,-46.15353l6.34177,0l16.99958,46.15353l-7.11139,0l-4.51882,-12.88306l-17.08052,0l-4.51882,12.88306zm6.57055,-18.79652l12.97706,0l-6.48853,-18.50698l-6.48853,18.50698zm48.7473,-16.56394c7.86265,0 12.3188,4.72173 12.3188,13.01675l0,22.34371l-6.49998,0l0,-21.03357c0,-5.74667 -2.3128,-8.35104 -7.34587,-8.35104c-5.08201,0 -8.24963,3.3718 -8.24963,8.91253l0,20.47208l-6.49998,0l0,-34.76777l6.25067,0l0,4.50043c1.96849,-3.32967 5.34431,-5.09312 10.02599,-5.09312zm23.20849,0.59269l0,-8.70309l6.49998,0l0,8.70309l7.47943,0l0,5.63271l-7.47943,0l0,18.45785c0,3.65744 1.25411,5.07568 4.41643,5.07568c0.90994,0 1.4139,-0.026 2.43995,-0.12228l0.62305,-0.05847l0,5.62804l-0.47083,0.08317c-1.2094,0.21363 -2.23249,0.32062 -3.24662,0.32062c-7.22918,0 -10.26196,-2.80798 -10.26196,-9.55423l0,-19.83038l-5.42258,0l0,-5.63271l5.42258,0zm55.63716,-11.38576c13.66966,0 21.79274,8.60087 21.79274,23.06117c0,14.49907 -8.09903,23.09236 -21.79274,23.09236l-15.99618,0l0,-46.15353l15.99618,0zm-9.24689,39.95932l8.87292,0c9.69734,0 15.29276,-6.14792 15.29276,-16.83576c0,-10.70457 -5.64471,-16.92935 -15.29276,-16.92935l-8.87292,0l0,33.76511zm52.87689,-23.28398c-4.85034,0 -8.29341,3.40925 -8.88239,8.74765l17.29531,0c-0.32725,-5.33905 -3.59218,-8.74765 -8.41292,-8.74765zm0.18698,24.1886c4.09042,0 6.83669,-1.45572 8.14867,-4.22808l0.15438,-0.32622l6.473,0l-0.20352,0.72475c-1.70985,6.0889 -7.1699,9.71182 -14.69718,9.71182c-9.63529,0 -15.71571,-6.99053 -15.71571,-17.94537c0,-10.88957 6.17118,-18.00777 15.71571,-18.00777c9.38442,0 15.15474,6.70709 15.15474,17.47747l0,2.6292l-24.13498,0c0.37895,6.17515 3.84452,9.9642 9.10489,9.9642zm21.52562,-19.7056c0,-5.93251 5.67131,-10.36527 13.09791,-10.36527c7.30419,0 12.46017,3.67586 13.2178,9.51192l0.0836,0.64391l-6.38412,0l-0.11303,-0.42303c-0.66683,-2.49573 -3.13933,-4.03769 -6.83542,-4.03769c-3.79799,0 -6.53559,1.88806 -6.53559,4.45181c0,1.94771 1.6079,3.23134 5.39135,4.15574l5.17349,1.2478c6.67385,1.61246 9.8166,4.60839 9.8166,9.66308c0,6.29037 -5.99448,10.7396 -14.03284,10.7396c-7.73573,0 -13.15298,-3.76529 -13.78033,-9.68119l-0.06687,-0.6306l6.56612,0l0.12646,0.3972c0.85584,2.6881 3.41241,4.25068 7.34161,4.25068c4.26006,0 7.19005,-1.96902 7.19005,-4.67017c0,-1.99745 -1.54107,-3.3701 -4.89392,-4.18722l-5.76505,-1.40364c-6.59752,-1.60191 -9.59782,-4.55059 -9.59782,-9.66293zm34.31188,24.99519l0,-34.76777l6.49998,0l0,34.76777l-6.49998,0zm3.24999,-40.45842c-2.37157,0 -4.30958,-1.93985 -4.30958,-4.31367c0,-2.37381 1.93801,-4.31366 4.30958,-4.31366c2.37157,0 4.30957,1.93985 4.30957,4.31366c0,2.37382 -1.938,4.31367 -4.30957,4.31367zm26.48964,34.07705c5.82613,0 9.40271,-4.38548 9.40271,-11.50162c0,-7.10207 -3.59622,-11.50162 -9.40271,-11.50162c-5.76614,0 -9.15339,4.31005 -9.15339,11.50162c0,7.19157 3.38725,11.50162 9.15339,11.50162zm9.52737,-28.3864l6.25067,0l0,34.79005c0,7.87025 -6.08616,12.89197 -15.52872,12.89197c-8.21263,0 -13.77801,-3.71377 -14.65014,-9.69014l-0.09527,-0.65285l6.791,0l0.09708,0.45002c0.54032,2.50493 3.37895,4.07309 7.85733,4.07309c5.71935,0 9.02874,-2.73303 9.02874,-7.35284l0,-5.42987c-2.29902,3.32893 -6.03216,5.18924 -10.4623,5.18924c-8.94537,0 -14.65612,-6.90513 -14.65612,-17.38389c0,-10.47182 5.7666,-17.47747 14.65612,-17.47747c4.47086,0 8.49351,2.00826 10.71161,5.27845l0,-4.68576zm31.48483,-0.59269c7.86265,0 12.3188,4.72173 12.3188,13.01675l0,22.34371l-6.49998,0l0,-21.03357c0,-5.74667 -2.3128,-8.35104 -7.34587,-8.35104c-5.08201,0 -8.24963,3.3718 -8.24963,8.91253l0,20.47208l-6.49998,0l0,-34.76777l6.25067,0l0,4.50043c1.96849,-3.32967 5.34431,-5.09312 10.02599,-5.09312z"/>
  </g>
  <text stroke="#000" transform="matrix(1.2000000476837158,0,0,1.5925925970077515,-2.100000500679016,-6.518518567085266) " xml:space="preserve" text-anchor="start" font-family="Helvetica, Arial, sans-serif" font-size="24" id="svg_3" y="31.116279" x="72.999998" stroke-width="0" fill="#000000">流程小助手</text>
 </g>
</svg>